<?xml version="1.0" encoding="utf-8"?>
<!-- Generator: Adobe Illustrator 22.0.1, SVG Export Plug-In . SVG Version: 6.00 Build 0)  -->
<svg version="1.0" id="Layer_1" xmlns="http://www.w3.org/2000/svg" xmlns:xlink="http://www.w3.org/1999/xlink" x="0px" y="0px"
	 viewBox="0 0 500 500" enable-background="new 0 0 500 500" xml:space="preserve">
<g>
	<g>
		<path fill="#161616" d="M185.7,307.3c26.9-4.6,123.6-71.3,133.3-93.8c9.6-22.5-4.8-104.9-18.1-124.5
			C287.6,69.4,185.4,18.4,157.4,17c-28-1.4-123.9,70.4-133.3,93.8c-9.4,23.4-6.2,105,6.5,119.5C43.2,244.8,158.7,311.9,185.7,307.3z
			"/>
		<path fill="#161616" d="M360.1,176.4c-7.7-1.7-18.1-3.7-18.1-3.7s-20.1-2-24.6-29.4c-1.7-7-66.3,14.6-66.3,14.6l6.2,53.4
			c0,0,59.8,6.6,61.6,2.2c5.1-12.2,16.2-12,16.2-12s1.4-0.4,8.1-0.7c6.7-0.3,10.7,11.1,17.7,10.2c10.5-1.4,51.2-6.8,51.2-6.8
			s-29.8-6.4-35.8-7.7C370.5,195,366.5,177.7,360.1,176.4z"/>
	</g>
	<path fill="#FFFFFF" d="M180.1,302.5c25.8-3.7,119.9-65.2,129.9-86.6c10-21.4-0.8-100.8-12.8-119.9c-12-19.1-107.2-70.6-133.7-72.6
		C137,21.4,43.4,87.8,33.6,110c-9.7,22.2-9.6,100.5,1.9,114.8C47,239,154.4,306.2,180.1,302.5z"/>
	<path fill="#FFFFFF" d="M354.8,182.2c-6-1.3-14.2-2.9-14.2-2.9s-27.1-3.2-30-33.3c-1.3-5.5-39.4,14.3-39.4,14.3l4.9,41.9
		c0,0,34.3,12.1,35.7,8.6c2.6-14.8,25.4-16.3,25.4-16.3s1.1-0.3,6.3-0.5c5.3-0.2,12.5,10.3,18,9.9c9.9-0.8,21.7-0.5,21.7-0.5
		s-11.3-2.9-16-4C362.5,198.2,359.8,183.3,354.8,182.2z"/>
</g>
<g>
	<rect x="-4.6" y="129.1" fill="none" width="350.1" height="77.6"/>
	<path d="M115.5,185c-0.8,2-2,3.7-3.5,5.1s-3.2,2.6-5.2,3.5c-2,0.8-4.1,1.3-6.3,1.3H79.7v-65.8h20.8c2.2,0,4.3,0.4,6.3,1.3
		c2,0.8,3.7,2,5.2,3.5s2.6,3.2,3.5,5.2c0.8,2,1.3,4.1,1.3,6.3v0.6c0,1.6-0.2,3.1-0.6,4.5s-1,2.7-1.8,4c-0.8,1.2-1.7,2.3-2.7,3.3
		c-1,1-2.2,1.8-3.5,2.5c1.3,0.7,2.4,1.5,3.5,2.5c1,1,1.9,2.1,2.7,3.4c0.8,1.2,1.4,2.6,1.8,4s0.6,2.9,0.6,4.5v4.2
		C116.7,181,116.3,183.1,115.5,185z M110.8,145.3c0-1.5-0.3-2.8-0.8-4.1c-0.6-1.3-1.3-2.4-2.3-3.4s-2.1-1.7-3.4-2.3
		c-1.3-0.6-2.6-0.8-4.1-0.8H85.6v22.7h14.6c1.5,0,2.8-0.3,4.1-0.8c1.3-0.6,2.4-1.3,3.4-2.3s1.7-2.1,2.3-3.4c0.6-1.3,0.8-2.6,0.8-4.1
		V145.3z M110.8,173.6c0-1.5-0.3-2.8-0.8-4.1c-0.6-1.3-1.3-2.4-2.3-3.3c-1-0.9-2.1-1.7-3.4-2.2c-1.3-0.6-2.6-0.8-4.1-0.8H85.6v26.2
		h14.6c1.5,0,2.8-0.3,4.1-0.8c1.3-0.6,2.4-1.3,3.4-2.2c1-0.9,1.7-2.1,2.3-3.3c0.6-1.3,0.8-2.6,0.8-4.1V173.6z"/>
	<path d="M162.8,185.9c-0.8,2-2,3.7-3.5,5.1s-3.2,2.6-5.1,3.5c-2,0.8-4.1,1.3-6.3,1.3h-4.7c-2.2,0-4.3-0.4-6.3-1.3s-3.7-2-5.2-3.5
		s-2.6-3.2-3.5-5.1c-0.8-2-1.3-4.1-1.3-6.3v-35.3c0-2.2,0.4-4.3,1.3-6.3c0.8-2,2-3.7,3.5-5.1s3.2-2.6,5.2-3.5c2-0.8,4.1-1.3,6.3-1.3
		h4.7c2.2,0,4.3,0.4,6.3,1.3c2,0.8,3.7,2,5.1,3.5s2.6,3.2,3.5,5.1c0.8,2,1.3,4.1,1.3,6.3v35.3C164.1,181.9,163.7,184,162.8,185.9z
		 M158.2,144.3c0-1.5-0.3-2.8-0.8-4.1c-0.6-1.3-1.3-2.4-2.2-3.3c-0.9-0.9-2.1-1.7-3.3-2.2c-1.3-0.6-2.6-0.8-4.1-0.8h-4.1
		c-1.5,0-2.8,0.3-4.1,0.8c-1.3,0.6-2.4,1.3-3.4,2.2c-1,0.9-1.7,2.1-2.3,3.3c-0.6,1.3-0.8,2.6-0.8,4.1v35.3c0,1.5,0.3,2.8,0.8,4.1
		c0.6,1.3,1.3,2.4,2.3,3.4s2.1,1.7,3.4,2.3c1.3,0.6,2.6,0.8,4.1,0.8h4.1c1.5,0,2.8-0.3,4.1-0.8c1.3-0.6,2.4-1.3,3.3-2.3
		c0.9-1,1.7-2.1,2.2-3.4c0.6-1.3,0.8-2.6,0.8-4.1V144.3z"/>
	<path d="M209.2,194.9l-17.9-28.1h-8.1v28.1h-5.9v-65.8h20.9c2.2,0,4.3,0.4,6.3,1.3c2,0.8,3.7,2,5.1,3.5s2.6,3.2,3.5,5.2
		c0.8,2,1.3,4.1,1.3,6.3v5.3c0,2.2-0.4,4.3-1.3,6.3c-0.8,2-2,3.7-3.5,5.2s-3.2,2.6-5.1,3.5c-2,0.8-4.1,1.3-6.3,1.3l17.9,28.1H209.2z
		 M208.4,145.3c0-1.5-0.3-2.8-0.8-4.1c-0.6-1.3-1.3-2.4-2.2-3.4c-0.9-1-2.1-1.7-3.3-2.3s-2.6-0.8-4.1-0.8h-14.7v26.4h14.7
		c1.5,0,2.8-0.3,4.1-0.8s2.4-1.3,3.3-2.3c0.9-1,1.7-2.1,2.2-3.4c0.6-1.3,0.8-2.6,0.8-4.1V145.3z"/>
	<path d="M227.3,194.9v-65.8h5.9v65.8H227.3z M259.4,194.9L234.6,162l24.8-32.9h7.3L241.5,162l25.3,32.9H259.4z"/>
</g>
<g>
</g>
<g>
</g>
<g>
</g>
<g>
</g>
<g>
</g>
<g>
</g>
</svg>
