<?xml version="1.0" encoding="utf-8"?>
<!-- Generator: Adobe Illustrator 22.0.1, SVG Export Plug-In . SVG Version: 6.00 Build 0)  -->
<svg version="1.0" id="Layer_1" xmlns="http://www.w3.org/2000/svg" xmlns:xlink="http://www.w3.org/1999/xlink" x="0px" y="0px"
	 viewBox="0 0 800 800" style="enable-background:new 0 0 800 800;" xml:space="preserve">
<style type="text/css">
	.st0{fill:#FFFFFF;}
</style>
<g>
	<path class="st0" d="M787.1,544.3c-28.8-5.8-58.8,8.6-72.8,35.5c-1.7-0.4-14.1-2.7-24.6,5.8c-7.8,6.4-9.7,14.9-10.1,17.3
		c-3.5-1.4-18.9-6.9-36.1,0c-13.4,5.4-20.4,15.3-22.9,19.1c-20.4-4.6-39,9.4-40.7,26.3c-1.4,13.6,8.2,28,23.7,32.9
		c0.5,2.5,5.5,24.9,27.6,35.5c21.2,10.1,40.8,1.2,43.4,0c0.6,1,10.5,17.7,30.2,18.4c18.4,0.7,29.2-13.1,30.2-14.5
		c4.1,3.2,23.2,17.2,49.9,14.5c5.5-0.6,10.5-1.8,15.1-3.4V548.4C795.9,546.6,791.6,545.2,787.1,544.3z"/>
	<path class="st0" d="M608.2,785.1c-11.1-2.2-22.6,3.3-28,13.7c-0.6-0.1-4.4-0.8-8,1.3h54.4C623.2,792.5,616.5,786.8,608.2,785.1z"
		/>
	<path class="st0" d="M450.5,547.8c0.2,0.9,1.9,8.4,9.3,12c7.2,3.4,13.8,0.4,14.7,0c0.2,0.3,3.6,6,10.2,6.2
		c6.2,0.2,9.9-4.5,10.2-4.9c1.4,1.1,7.9,5.8,16.9,4.9c10.9-1.1,16.6-9.5,17.4-10.7c2.4,0.7,5,0,6.7-1.8c1.9-2,2.2-5.1,0.9-7.6
		c6.3-2,9.6-8.9,7.6-14.7c-1.9-5.3-7.8-8.5-13.6-7.1c0.1-11.1-7.6-20.6-18.1-22.7c-9.8-2-19.9,2.9-24.7,12c-0.6-0.1-4.8-0.9-8.3,2
		c-2.6,2.2-3.3,5-3.4,5.9c-1.2-0.5-6.4-2.3-12.2,0c-4.5,1.8-6.9,5.2-7.7,6.5c-6.9-1.5-13.2,3.2-13.8,8.9
		C442,541.3,445.2,546.2,450.5,547.8z"/>
	<g>
		<path class="st0" d="M36.1,703.4c7.1,2.1,14.8,0.1,19.7-5.3c5.5-5.9,6.6-15,2.6-22.3c18.6-6,28.4-26.2,22.3-43.4
			c-5.5-15.7-23-25.2-40.3-21.1c0.2-27.9-16.4-52.5-40.6-63v183.2C22.3,723.8,34.3,706.2,36.1,703.4z"/>
		<path class="st0" d="M211.8,537.2c0.3,1.4,3.1,14,15.5,20c11.9,5.7,23,0.7,24.4,0c0.3,0.6,5.9,10,17,10.4
			c10.4,0.4,16.5-7.4,17-8.1c2.3,1.8,13.1,9.7,28.1,8.1c18.1-1.9,27.6-15.8,28.9-17.8c4,1.2,8.3,0,11.1-3c3.1-3.3,3.7-8.4,1.5-12.6
			c10.5-3.4,16-14.7,12.6-24.4c-3.1-8.8-12.9-14.2-22.7-11.9c0.2-18.4-12.7-34.3-30.1-37.8c-16.2-3.3-33.1,4.8-41,20
			c-1-0.2-8-1.5-13.8,3.3c-4.4,3.6-5.4,8.4-5.7,9.8c-2-0.8-10.6-3.9-20.3,0c-7.6,3-11.5,8.6-12.9,10.7c-11.5-2.6-21.9,5.3-22.9,14.8
			C197.7,526.4,203.1,534.5,211.8,537.2z"/>
		<path class="st0" d="M140.5,738.8c0.2,0.9,1.9,8.4,9.3,12c7.2,3.4,13.8,0.4,14.7,0c0.2,0.3,3.6,6,10.2,6.2
			c6.2,0.2,9.9-4.5,10.2-4.9c1.4,1.1,7.9,5.8,16.9,4.9c10.9-1.1,16.6-9.5,17.4-10.7c2.4,0.7,5,0,6.7-1.8c1.9-2,2.2-5.1,0.9-7.6
			c6.3-2,9.6-8.9,7.6-14.7c-1.9-5.3-7.8-8.5-13.6-7.1c0.1-11.1-7.6-20.6-18.1-22.7c-9.8-2-19.9,2.9-24.7,12c-0.6-0.1-4.8-0.9-8.3,2
			c-2.6,2.2-3.3,5-3.4,5.9c-1.2-0.5-6.4-2.3-12.2,0c-4.5,1.8-6.9,5.2-7.7,6.5c-6.9-1.5-13.2,3.2-13.8,8.9
			C132,732.3,135.2,737.2,140.5,738.8z"/>
	</g>
	<g>
		<path class="st0" d="M303,292.6c0.1-14.1-9.8-26.3-23.2-29c-12.5-2.5-25.4,3.7-31.5,15.4c-0.7-0.2-6.1-1.2-10.6,2.5
			c-3.4,2.8-4.2,6.4-4.4,7.5c-1.5-0.6-8.2-3-15.6,0c-5.8,2.3-8.8,6.6-9.9,8.3c-8.8-2-16.9,4.1-17.6,11.4
			c-0.6,5.9,3.5,12.1,10.2,14.2c0.2,1.1,2.4,10.8,11.9,15.4c9.2,4.4,17.7,0.5,18.8,0c0.2,0.4,4.5,7.7,13.1,8
			c8,0.3,12.7-5.7,13.1-6.3c1.8,1.4,10,7.5,21.6,6.3c13.9-1.4,21.2-12.2,22.2-13.6c3.1,0.9,6.4,0,8.5-2.3c2.4-2.6,2.8-6.5,1.1-9.7
			c8.1-2.6,12.3-11.3,9.7-18.8C318.1,294.9,310.5,290.8,303,292.6z"/>
		<path class="st0" d="M68.3,197.5c0.1-13-9-24.2-21.3-26.7c-11.5-2.3-23.4,3.4-29,14.1c-0.7-0.1-5.6-1.1-9.8,2.3
			c-3.1,2.5-3.9,5.9-4,6.9c-0.6-0.2-2.1-0.8-4.2-1.1v47.2c1.1-0.4,1.9-0.7,2.1-0.8c0.2,0.4,4.2,7,12,7.3c7.3,0.3,11.6-5.2,12-5.8
			c1.6,1.3,9.2,6.9,19.9,5.8c12.8-1.3,19.5-11.2,20.4-12.6c2.8,0.8,5.9,0,7.8-2.1c2.2-2.4,2.6-6,1-8.9c7.4-2.4,11.3-10.4,8.9-17.3
			C82.1,199.7,75.1,195.9,68.3,197.5z"/>
		<path class="st0" d="M355.9,108.1c0.2-26.5-18.3-49.3-43.4-54.4c-23.4-4.7-47.7,7-59,28.8c-1.4-0.3-11.5-2.2-19.9,4.7
			c-6.3,5.2-7.8,12.1-8.2,14.1c-2.8-1.1-15.3-5.6-29.3,0c-10.9,4.4-16.6,12.4-18.5,15.5c-16.5-3.7-31.6,7.7-33,21.3
			c-1.2,11,6.6,22.7,19.2,26.6c0.4,2,4.4,20.2,22.4,28.8c17.2,8.2,33.1,1,35.2,0c0.5,0.8,8.5,14.3,24.5,14.9
			c14.9,0.5,23.7-10.7,24.5-11.7c3.4,2.6,18.8,14,40.5,11.7c26-2.7,39.7-22.8,41.6-25.6c5.8,1.7,12,0.1,16-4.3
			c4.5-4.8,5.3-12.1,2.1-18.1c15.1-4.9,23-21.2,18.1-35.2C384,112.5,369.9,104.7,355.9,108.1z"/>
	</g>
	<g>
		<path class="st0" d="M570.7,1c-3,2.5-3.7,5.7-3.9,6.7c-1.4-0.5-7.3-2.7-13.9,0c-5.2,2.1-7.9,5.9-8.8,7.3
			c-7.9-1.8-15,3.6-15.7,10.1c-0.6,5.2,3.1,10.8,9.1,12.6c0.2,1,2.1,9.6,10.6,13.7c8.2,3.9,15.7,0.5,16.7,0c0.2,0.4,4,6.8,11.6,7.1
			c7.1,0.3,11.3-5.1,11.6-5.6c1.6,1.2,8.9,6.6,19.2,5.6c12.4-1.3,18.9-10.8,19.7-12.1c2.7,0.8,5.7,0,7.6-2c2.1-2.3,2.5-5.8,1-8.6
			c7.2-2.3,10.9-10.1,8.6-16.7c-2.1-6-8.8-9.7-15.5-8.1c0-3.9-0.8-7.6-2.3-10.9h-54.4C571.7,0.3,571.2,0.6,570.7,1z"/>
		<path class="st0" d="M789.8,194.2c-5.3,2.1-8.1,6.1-9.1,7.6c-8.1-1.8-15.5,3.8-16.2,10.5c-0.6,5.4,3.2,11.1,9.4,13.1
			c0.2,1,2.2,9.9,11,14.1c6.2,3,12.1,1.8,15.1,0.8v-47.2C797.3,192.6,793.7,192.6,789.8,194.2z"/>
		<path class="st0" d="M655.9,167.4c0.2-22.6-15.6-42.1-37-46.4c-20-4-40.7,5.9-50.4,24.5c-1.2-0.2-9.8-1.9-17,4
			c-5.4,4.4-6.7,10.3-7,12c-2.4-1-13.1-4.8-25,0c-9.3,3.7-14.2,10.6-15.8,13.2c-14.1-3.2-27,6.5-28.2,18.2
			c-1,9.4,5.6,19.4,16.4,22.7c0.4,1.7,3.8,17.2,19.1,24.6c14.7,7,28.3,0.8,30,0c0.4,0.7,7.3,12.2,20.9,12.7
			c12.7,0.5,20.2-9.1,20.9-10c2.9,2.2,16,11.9,34.6,10c22.2-2.3,33.9-19.5,35.5-21.8c4.9,1.5,10.2,0,13.6-3.6
			c3.8-4.1,4.6-10.4,1.8-15.5c12.9-4.2,19.7-18.1,15.5-30C679.9,171.1,667.9,164.5,655.9,167.4z"/>
	</g>
	<path class="st0" d="M473.8,685.3c0.1-15.7-10.8-29.2-25.7-32.3c-13.9-2.8-28.3,4.1-35,17.1c-0.8-0.2-6.8-1.3-11.8,2.8
		c-3.8,3.1-4.6,7.2-4.9,8.3c-1.7-0.7-9.1-3.3-17.4,0c-6.5,2.6-9.8,7.4-11,9.2c-9.8-2.2-18.7,4.5-19.6,12.6
		c-0.7,6.5,3.9,13.4,11.4,15.8c0.2,1.2,2.6,12,13.3,17.1c10.2,4.9,19.6,0.6,20.8,0c0.3,0.5,5,8.5,14.5,8.8
		c8.8,0.3,14.1-6.3,14.5-6.9c2,1.5,11.1,8.3,24,6.9c15.4-1.6,23.6-13.5,24.6-15.2c3.4,1,7.1,0,9.5-2.5c2.6-2.9,3.2-7.2,1.3-10.7
		c9-2.9,13.7-12.6,10.7-20.8C490.5,687.9,482.1,683.3,473.8,685.3z"/>
	<path class="st0" d="M122,443c0.1-10.1-7-18.8-16.5-20.7c-8.9-1.8-18.2,2.7-22.5,11c-0.5-0.1-4.4-0.8-7.6,1.8c-2.4,2-3,4.6-3.1,5.4
		c-1.1-0.4-5.8-2.1-11.2,0c-4.1,1.7-6.3,4.7-7.1,5.9c-6.3-1.4-12,2.9-12.6,8.1c-0.4,4.2,2.5,8.6,7.3,10.2c0.2,0.8,1.7,7.7,8.5,11
		c6.5,3.1,12.6,0.4,13.4,0c0.2,0.3,3.2,5.5,9.3,5.7c5.7,0.2,9-4.1,9.3-4.5c1.3,1,7.2,5.3,15.4,4.5c9.9-1,15.1-8.7,15.8-9.7
		c2.2,0.6,4.6,0,6.1-1.6c1.7-1.8,2-4.6,0.8-6.9c5.8-1.9,8.8-8.1,6.9-13.4C132.7,444.7,127.3,441.7,122,443z"/>
	<path class="st0" d="M468.1,331c0.1-7.7-5.3-14.4-12.6-15.9c-6.8-1.4-13.9,2-17.2,8.4c-0.4-0.1-3.3-0.6-5.8,1.4
		c-1.8,1.5-2.3,3.5-2.4,4.1c-0.8-0.3-4.5-1.6-8.5,0c-3.2,1.3-4.8,3.6-5.4,4.5c-4.8-1.1-9.2,2.2-9.6,6.2c-0.3,3.2,1.9,6.6,5.6,7.8
		c0.1,0.6,1.3,5.9,6.5,8.4c5,2.4,9.7,0.3,10.3,0c0.1,0.2,2.5,4.2,7.1,4.3c4.3,0.2,6.9-3.1,7.1-3.4c1,0.8,5.5,4.1,11.8,3.4
		c7.6-0.8,11.6-6.6,12.1-7.5c1.7,0.5,3.5,0,4.7-1.2c1.3-1.4,1.6-3.5,0.6-5.3c4.4-1.4,6.7-6.2,5.3-10.3
		C476.3,332.3,472.1,330.1,468.1,331z"/>
	<path class="st0" d="M740.3,392.6c0.2-17.6-12.2-32.9-28.9-36.2c-15.6-3.1-31.8,4.6-39.3,19.2c-0.9-0.2-7.6-1.5-13.3,3.1
		c-4.2,3.4-5.2,8-5.5,9.4c-1.9-0.7-10.2-3.7-19.5,0c-7.2,2.9-11,8.3-12.3,10.3c-11-2.5-21,5.1-22,14.2c-0.8,7.3,4.4,15.1,12.8,17.7
		c0.3,1.4,3,13.4,14.9,19.2c11.4,5.5,22.1,0.7,23.4,0c0.3,0.5,5.7,9.6,16.3,9.9c9.9,0.4,15.8-7.1,16.3-7.8c2.2,1.7,12.5,9.3,27,7.8
		c17.3-1.8,26.5-15.2,27.7-17c3.8,1.1,8,0,10.6-2.8c3-3.2,3.6-8.1,1.4-12.1c10.1-3.2,15.4-14.1,12.1-23.4
		C759,395.5,749.6,390.4,740.3,392.6z"/>
	<path class="st0" d="M96.2,36.5c0.1-10.7-7.4-20-17.6-22.1c-9.5-1.9-19.3,2.8-23.9,11.7C54.1,26,50,25.2,46.6,28
		c-2.6,2.1-3.2,4.9-3.3,5.7c-1.2-0.5-6.2-2.3-11.9,0c-4.4,1.8-6.7,5-7.5,6.3c-6.7-1.5-12.8,3.1-13.4,8.6c-0.5,4.5,2.7,9.2,7.8,10.8
		c0.2,0.8,1.8,8.2,9.1,11.7c7,3.3,13.4,0.4,14.3,0c0.2,0.3,3.5,5.8,9.9,6.1c6,0.2,9.6-4.3,9.9-4.8c1.4,1.1,7.6,5.7,16.4,4.8
		C88.4,76,94,67.9,94.7,66.7c2.3,0.7,4.9,0,6.5-1.7c1.8-2,2.2-4.9,0.9-7.3c6.1-2,9.3-8.6,7.3-14.3C107.6,38.3,101.9,35.1,96.2,36.5z
		"/>
</g>
</svg>
