<?xml version="1.0" encoding="utf-8"?>
<!-- Generator: Adobe Illustrator 22.0.1, SVG Export Plug-In . SVG Version: 6.00 Build 0)  -->
<svg version="1.0" id="Layer_1" xmlns="http://www.w3.org/2000/svg" xmlns:xlink="http://www.w3.org/1999/xlink" x="0px" y="0px"
	 viewBox="0 0 500 500" style="enable-background:new 0 0 500 500;" xml:space="preserve">
<style type="text/css">
	.st0{fill:#AF7C36;}
	.st1{fill:#C39147;}
	.st2{fill:#DBAF6F;}
	.st3{fill:#D4A458;}
	.st4{fill:#D0A977;}
	.st5{fill:#61594A;}
	.st6{fill:#232321;}
	.st7{fill:#31322F;}
	.st8{fill:#272825;}
	.st9{fill:#343533;}
	.st10{fill:#3F403E;}
	.st11{fill:#070404;}
</style>
<g>
	<g>
		<polygon class="st0" points="182,491.9 120.4,491.9 76,429.5 132.9,350.4 182,418.9 		"/>
	</g>
	<g>
		<polygon class="st1" points="132.9,350.4 143.8,257.9 182,303.8 182,418.9 		"/>
	</g>
	<g>
		<polygon class="st2" points="361.2,225.7 336.4,168.2 182,147.6 140.8,234.7 215.2,303.8 298,303.8 		"/>
	</g>
	<g>
		<polygon class="st3" points="361.2,225.7 362.9,303.8 298,303.8 		"/>
	</g>
	<g>
		<polygon class="st3" points="140.8,234.7 149.5,303.8 215.2,303.8 		"/>
	</g>
	<g>
		<rect x="182" y="303.8" class="st1" width="143.7" height="115.1"/>
	</g>
	<g>
		<polygon class="st0" points="182,491.9 290.2,491.9 325.6,418.9 182,418.9 		"/>
	</g>
	<g>
		<polygon class="st4" points="215.2,303.8 262.1,303.8 212.9,353.8 		"/>
	</g>
	<g>
		<polygon class="st4" points="298,303.8 304.3,348.4 262.1,303.8 		"/>
	</g>
	<g>
		<polygon class="st3" points="120.4,491.9 88.4,491.9 99.9,463.1 		"/>
	</g>
	<g>
		<polygon class="st3" points="290.2,491.9 318.1,491.9 302.8,466 		"/>
	</g>
	<g>
		<polygon class="st2" points="132.9,350.4 120.4,430.8 76,429.5 		"/>
	</g>
	<g>
		<polygon class="st1" points="120.4,430.8 176,491.9 120.4,491.9 76,429.5 		"/>
	</g>
	<g>
		<polygon class="st3" points="336.4,168.2 175.9,160.6 182,63.9 209.6,0 314.6,0 342.2,63.9 		"/>
	</g>
	<g>
		<path class="st5" d="M209.6,0l-67.4,31.3c0,0,9.2,25.9,35.1,49.1L209.6,0z"/>
	</g>
	<g>
		<path class="st5" d="M314.2,0l67.4,31.3c0,0-9.2,25.9-35.1,49.1L314.2,0z"/>
	</g>
	<g>
		<g>
			<rect x="222.8" y="105.7" class="st6" width="78.6" height="34.1"/>
		</g>
		<g>
			<polygon class="st7" points="301.7,139.8 262.1,111.9 262.1,84.1 273.7,74.2 325.6,118.8 			"/>
		</g>
		<g>
			<polygon class="st8" points="280,56.7 325.6,94 325.6,118.8 273.7,74.2 			"/>
		</g>
		<g>
			<polygon class="st7" points="222.4,139.8 262.1,111.9 262.1,84.1 250.5,74.2 198.5,118.8 			"/>
		</g>
		<g>
			<polygon class="st9" points="244.1,56.7 198.5,94 198.5,118.8 250.5,74.2 			"/>
		</g>
		<g>
			<polygon class="st10" points="280,56.7 244.1,56.7 250.5,74.2 273.7,74.2 			"/>
		</g>
		<g>
			<circle class="st11" cx="219.2" cy="56.7" r="10.7"/>
		</g>
		<g>
			<circle class="st11" cx="305" cy="56.7" r="10.7"/>
		</g>
		<g>
			<rect x="260.4" y="82.3" class="st6" width="3.3" height="33.2"/>
		</g>
		<g>
			<path class="st11" d="M273.7,74.2c0,6.4-5.2,11.6-11.6,11.6c-6.4,0-11.6-5.2-11.6-11.6H273.7z"/>
		</g>
	</g>
	<g>
		<polygon class="st2" points="362.9,303.8 298,303.8 325.6,499.7 354.6,499.7 		"/>
	</g>
	<g>
		<polygon class="st2" points="215.2,303.8 149.5,303.8 177.1,499.7 206.1,499.7 		"/>
	</g>
</g>
</svg>
